<svg xmlns="http://www.w3.org/2000/svg" xmlns:xlink="http://www.w3.org/1999/xlink" width="60" height="41" viewBox="0 0 60 41">
  <defs>
    <filter id="Rectangle_221" x="0" y="0" width="41" height="41" filterUnits="userSpaceOnUse">
      <feOffset dy="3" input="SourceAlpha"/>
      <feGaussianBlur stdDeviation="3" result="blur"/>
      <feFlood flood-opacity="0.078"/>
      <feComposite operator="in" in2="blur"/>
      <feComposite in="SourceGraphic"/>
    </filter>
  </defs>
  <g id="Group_443" data-name="Group 443" transform="translate(-138 -589)">
    <rect id="Rectangle_220" data-name="Rectangle 220" width="54" height="27" rx="13.5" transform="translate(144 593)" fill="#dddcdc"/>
    <g transform="matrix(1, 0, 0, 1, 138, 589)" filter="url(#Rectangle_221)">
      <rect id="Rectangle_221-2" data-name="Rectangle 221" width="23" height="23" rx="11.5" transform="translate(9 6)" fill="#fff"/>
    </g>
    <g id="Group_441" data-name="Group 441">
      <g id="Group_439" data-name="Group 439" transform="translate(-1951.632 1018.44)">
        <path id="Path_411" data-name="Path 411" d="M2111.406-407.554a5.967,5.967,0,0,0,4.166-1.612c.479-.451.5-.449.963.023.1.1.2.213.3.319a.4.4,0,0,1,0,.625,1.99,1.99,0,0,0-.525,1.4,1.719,1.719,0,0,1-1.169,1.691,1.755,1.755,0,0,1-2.053-.473,1.79,1.79,0,0,0-1.977-.59,3.19,3.19,0,0,0-.951.617,1.865,1.865,0,0,1-3.027-1.014,3.516,3.516,0,0,1-.035-.655,1.849,1.849,0,0,0-1.712-1.874c-.127-.014-.256-.013-.383-.024a1.748,1.748,0,0,1-1.581-1.172,1.782,1.782,0,0,1,.4-1.978,3.875,3.875,0,0,0,.5-.577,1.847,1.847,0,0,0-.334-2.308,1.853,1.853,0,0,1-.238-2.362,1.736,1.736,0,0,1,1.583-.816,2.064,2.064,0,0,0,1.477-.465.373.373,0,0,1,.578.028c.1.105.2.215.3.318.228.226.212.422-.017.655a7.33,7.33,0,0,0-.938,1.068,5.624,5.624,0,0,0-.33,6.078A5.621,5.621,0,0,0,2111.406-407.554Z" fill="#2580d3"/>
        <path id="Path_412" data-name="Path 412" d="M2137.867-393.659a4.805,4.805,0,0,1-4.494-3.03,4.828,4.828,0,0,1,1.179-5.294c.41-.384.522-.391.9.008q2.9,3.038,5.782,6.085c.374.394.367.512-.043.9A4.73,4.73,0,0,1,2137.867-393.659Z" transform="translate(-26.489 -14.82)" fill="#2580d3"/>
      </g>
    </g>
    <g id="Group_442" data-name="Group 442">
      <g id="Group_440" data-name="Group 440" transform="translate(-1986.681 1079.061)">
        <path id="Path_413" data-name="Path 413" d="M2198.8-468.066a5.693,5.693,0,0,0,6.635-1.043,5.7,5.7,0,0,0,1.261-6.6c1.9.808,3.128,3.373,2.8,5.767a5.793,5.793,0,0,1-5.01,4.852A5.627,5.627,0,0,1,2198.8-468.066Z" transform="translate(-34.103 -4.546)"/>
        <path id="Path_414" data-name="Path 414" d="M2159.652-477.519a3.559,3.559,0,0,0-.065-3.194l.133-.127a7.151,7.151,0,0,0,1.647.357,7.817,7.817,0,0,0,1.744-.452,7.734,7.734,0,0,0-.4,1.751,7.882,7.882,0,0,0,.455,1.749,7.94,7.94,0,0,0-1.73-.376,7.228,7.228,0,0,0-1.613.387Z" transform="translate(0 0)"/>
        <path id="Path_415" data-name="Path 415" d="M2259.507-372.99a3.506,3.506,0,0,0,2.5-.055,3.516,3.516,0,0,0,.17,2.613,3.1,3.1,0,0,0-2.671.075A3.818,3.818,0,0,0,2259.507-372.99Z" transform="translate(-86.892 -93.828)"/>
        <path id="Path_416" data-name="Path 416" d="M2231.442-459.213v1.458h-1.466v-1.458Z" transform="translate(-61.214 -18.891)"/>
      </g>
    </g>
  </g>
</svg>
