<svg id="Component_28_1" data-name="Component 28 – 1" xmlns="http://www.w3.org/2000/svg" width="24.131" height="24.215" viewBox="0 0 24.131 24.215">
  <g id="XMLID_1_" transform="translate(-8.1)">
    <path id="XMLID_3_" d="M15.276,18.147V0H12.109V18.147H8.1l5.59,5.272,5.59-5.272Z" transform="translate(0)" fill="#ff6868"/>
    <path id="XMLID_4_" d="M318.632,11.225H312.2a.771.771,0,0,1-.7-.42.788.788,0,0,1,.045-.841l5.6-8.378H312.2A.813.813,0,0,1,311.411.8.817.817,0,0,1,312.2,0h6.381a.864.864,0,0,1,.7.42.788.788,0,0,1-.045.841l-5.59,8.383h4.889a.813.813,0,0,1,.791.791A.737.737,0,0,1,318.632,11.225Z" transform="translate(-288.801)" fill="#ff6868"/>
    <path id="XMLID_7_" d="M291.222,298.614l-4.844-9.594a.771.771,0,0,0-.7-.42.864.864,0,0,0-.7.42l-4.8,9.6a.8.8,0,0,0,.37,1.071l.37.1a.74.74,0,0,0,.7-.465l1.4-2.747h5.4l1.4,2.747a.836.836,0,0,0,1.071.37.854.854,0,0,0,.335-1.076Zm-7.452-3.633,1.912-3.818,1.912,3.818H283.77Z" transform="translate(-259.064 -275.571)" fill="#ff6868"/>
  </g>
</svg>
